<svg id="visual" viewBox="0 0 1440 1080" width="1440" height="1080" xmlns="http://www.w3.org/2000/svg" xmlns:xlink="http://www.w3.org/1999/xlink" version="1.1"><g stroke-width="1" stroke-linejoin="bevel"><path d="M742 481L681 450L635 531Z" fill="#0a1e30" stroke="#0a1e30"></path><path d="M681 450L605 415L635 531Z" fill="#052c3c" stroke="#052c3c"></path><path d="M635 531L767 647L742 481Z" fill="#053e47" stroke="#053e47"></path><path d="M467 670L587 684L635 531Z" fill="#094349" stroke="#094349"></path><path d="M635 531L587 684L767 647Z" fill="#062738" stroke="#062738"></path><path d="M832 321L772 322L742 481Z" fill="#053e47" stroke="#053e47"></path><path d="M742 481L772 322L681 450Z" fill="#033542" stroke="#033542"></path><path d="M681 450L772 322L605 415Z" fill="#043a45" stroke="#043a45"></path><path d="M767 647L916 535L742 481Z" fill="#094349" stroke="#094349"></path><path d="M892 376L832 321L742 481Z" fill="#033542" stroke="#033542"></path><path d="M767 647L896 626L916 535Z" fill="#144c4d" stroke="#144c4d"></path><path d="M887 781L896 626L767 647Z" fill="#043a45" stroke="#043a45"></path><path d="M916 535L892 376L742 481Z" fill="#082334" stroke="#082334"></path><path d="M587 684L661 757L767 647Z" fill="#094349" stroke="#094349"></path><path d="M411 577L467 670L635 531Z" fill="#0a1e30" stroke="#0a1e30"></path><path d="M587 684L628 821L661 757Z" fill="#062738" stroke="#062738"></path><path d="M605 415L411 577L635 531Z" fill="#062738" stroke="#062738"></path><path d="M916 535L970 442L892 376Z" fill="#043a45" stroke="#043a45"></path><path d="M892 376L872 183L832 321Z" fill="#082334" stroke="#082334"></path><path d="M1063 532L970 442L916 535Z" fill="#043a45" stroke="#043a45"></path><path d="M772 322L557 243L605 415Z" fill="#0e474b" stroke="#0e474b"></path><path d="M605 415L397 350L411 577Z" fill="#082334" stroke="#082334"></path><path d="M709 90L557 243L772 322Z" fill="#094349" stroke="#094349"></path><path d="M484 822L628 821L587 684Z" fill="#062738" stroke="#062738"></path><path d="M661 757L887 781L767 647Z" fill="#053e47" stroke="#053e47"></path><path d="M557 243L438 298L605 415Z" fill="#03303f" stroke="#03303f"></path><path d="M438 298L397 350L605 415Z" fill="#033542" stroke="#033542"></path><path d="M674 885L887 781L661 757Z" fill="#03303f" stroke="#03303f"></path><path d="M896 626L1063 532L916 535Z" fill="#053e47" stroke="#053e47"></path><path d="M1065 250L872 183L892 376Z" fill="#053e47" stroke="#053e47"></path><path d="M832 321L872 183L772 322Z" fill="#03303f" stroke="#03303f"></path><path d="M1047 702L1063 532L896 626Z" fill="#094349" stroke="#094349"></path><path d="M970 442L1065 250L892 376Z" fill="#062738" stroke="#062738"></path><path d="M316 792L484 822L467 670Z" fill="#043a45" stroke="#043a45"></path><path d="M467 670L484 822L587 684Z" fill="#062738" stroke="#062738"></path><path d="M583 967L674 885L628 821Z" fill="#082334" stroke="#082334"></path><path d="M628 821L674 885L661 757Z" fill="#094349" stroke="#094349"></path><path d="M557 243L522 153L438 298Z" fill="#062738" stroke="#062738"></path><path d="M288 256L263 387L397 350Z" fill="#043a45" stroke="#043a45"></path><path d="M709 90L522 153L557 243Z" fill="#0e474b" stroke="#0e474b"></path><path d="M887 781L1047 702L896 626Z" fill="#043a45" stroke="#043a45"></path><path d="M872 183L709 90L772 322Z" fill="#03303f" stroke="#03303f"></path><path d="M246 570L281 637L411 577Z" fill="#094349" stroke="#094349"></path><path d="M411 577L281 637L467 670Z" fill="#043a45" stroke="#043a45"></path><path d="M1135 672L1127 482L1063 532Z" fill="#052c3c" stroke="#052c3c"></path><path d="M1063 532L1127 482L970 442Z" fill="#144c4d" stroke="#144c4d"></path><path d="M288 256L397 350L438 298Z" fill="#03303f" stroke="#03303f"></path><path d="M397 350L263 387L411 577Z" fill="#053e47" stroke="#053e47"></path><path d="M263 387L246 570L411 577Z" fill="#043a45" stroke="#043a45"></path><path d="M814 985L976 859L887 781Z" fill="#03303f" stroke="#03303f"></path><path d="M887 781L976 859L1047 702Z" fill="#052c3c" stroke="#052c3c"></path><path d="M482 0L421 141L522 153Z" fill="#03303f" stroke="#03303f"></path><path d="M522 153L421 141L438 298Z" fill="#043a45" stroke="#043a45"></path><path d="M1103 263L1065 250L970 442Z" fill="#052c3c" stroke="#052c3c"></path><path d="M893 0L662 0L709 90Z" fill="#033542" stroke="#033542"></path><path d="M281 637L316 792L467 670Z" fill="#053e47" stroke="#053e47"></path><path d="M484 822L583 967L628 821Z" fill="#053e47" stroke="#053e47"></path><path d="M201 665L316 792L281 637Z" fill="#052c3c" stroke="#052c3c"></path><path d="M424 939L583 967L484 822Z" fill="#094349" stroke="#094349"></path><path d="M674 885L814 985L887 781Z" fill="#033542" stroke="#033542"></path><path d="M1201 866L1135 672L1047 702Z" fill="#082334" stroke="#082334"></path><path d="M1047 702L1135 672L1063 532Z" fill="#082334" stroke="#082334"></path><path d="M421 141L288 256L438 298Z" fill="#052c3c" stroke="#052c3c"></path><path d="M1127 482L1103 263L970 442Z" fill="#043a45" stroke="#043a45"></path><path d="M893 0L709 90L872 183Z" fill="#082334" stroke="#082334"></path><path d="M693 1080L814 985L674 885Z" fill="#094349" stroke="#094349"></path><path d="M263 387L203 586L246 570Z" fill="#144c4d" stroke="#144c4d"></path><path d="M246 570L203 586L281 637Z" fill="#082334" stroke="#082334"></path><path d="M194 346L203 586L263 387Z" fill="#052c3c" stroke="#052c3c"></path><path d="M316 792L424 939L484 822Z" fill="#053e47" stroke="#053e47"></path><path d="M1050 117L872 183L1065 250Z" fill="#033542" stroke="#033542"></path><path d="M709 90L590 0L522 153Z" fill="#03303f" stroke="#03303f"></path><path d="M203 586L201 665L281 637Z" fill="#094349" stroke="#094349"></path><path d="M316 792L322 975L424 939Z" fill="#094349" stroke="#094349"></path><path d="M662 0L590 0L709 90Z" fill="#03303f" stroke="#03303f"></path><path d="M288 256L194 346L263 387Z" fill="#052c3c" stroke="#052c3c"></path><path d="M0 665L170 815L201 665Z" fill="#03303f" stroke="#03303f"></path><path d="M1127 482L1209 445L1103 263Z" fill="#144c4d" stroke="#144c4d"></path><path d="M1270 488L1209 445L1127 482Z" fill="#033542" stroke="#033542"></path><path d="M1166 171L1065 250L1103 263Z" fill="#052c3c" stroke="#052c3c"></path><path d="M1166 171L1050 117L1065 250Z" fill="#0a1e30" stroke="#0a1e30"></path><path d="M957 0L893 0L872 183Z" fill="#144c4d" stroke="#144c4d"></path><path d="M590 0L482 0L522 153Z" fill="#0a1e30" stroke="#0a1e30"></path><path d="M421 141L256 167L288 256Z" fill="#043a45" stroke="#043a45"></path><path d="M288 256L147 281L194 346Z" fill="#052c3c" stroke="#052c3c"></path><path d="M277 0L256 167L421 141Z" fill="#053e47" stroke="#053e47"></path><path d="M621 1080L693 1080L583 967Z" fill="#094349" stroke="#094349"></path><path d="M583 967L693 1080L674 885Z" fill="#082334" stroke="#082334"></path><path d="M814 985L1059 969L976 859Z" fill="#052c3c" stroke="#052c3c"></path><path d="M1050 117L957 0L872 183Z" fill="#082334" stroke="#082334"></path><path d="M375 1080L621 1080L583 967Z" fill="#053e47" stroke="#053e47"></path><path d="M1135 672L1270 488L1127 482Z" fill="#03303f" stroke="#03303f"></path><path d="M1238 220L1166 171L1103 263Z" fill="#094349" stroke="#094349"></path><path d="M1238 220L1103 263L1297 362Z" fill="#144c4d" stroke="#144c4d"></path><path d="M1050 117L1134 0L957 0Z" fill="#0e474b" stroke="#0e474b"></path><path d="M256 167L147 281L288 256Z" fill="#094349" stroke="#094349"></path><path d="M0 418L0 540L203 586Z" fill="#144c4d" stroke="#144c4d"></path><path d="M870 1080L1059 969L814 985Z" fill="#043a45" stroke="#043a45"></path><path d="M976 859L1201 866L1047 702Z" fill="#062738" stroke="#062738"></path><path d="M1135 672L1326 674L1270 488Z" fill="#033542" stroke="#033542"></path><path d="M170 815L322 975L316 792Z" fill="#144c4d" stroke="#144c4d"></path><path d="M424 939L375 1080L583 967Z" fill="#094349" stroke="#094349"></path><path d="M693 1080L870 1080L814 985Z" fill="#082334" stroke="#082334"></path><path d="M0 665L201 665L203 586Z" fill="#052c3c" stroke="#052c3c"></path><path d="M201 665L170 815L316 792Z" fill="#0e474b" stroke="#0e474b"></path><path d="M1297 362L1103 263L1209 445Z" fill="#03303f" stroke="#03303f"></path><path d="M1166 171L1134 0L1050 117Z" fill="#082334" stroke="#082334"></path><path d="M1059 969L1201 866L976 859Z" fill="#0a1e30" stroke="#0a1e30"></path><path d="M1440 373L1297 362L1270 488Z" fill="#144c4d" stroke="#144c4d"></path><path d="M1270 488L1297 362L1209 445Z" fill="#082334" stroke="#082334"></path><path d="M1059 969L1105 980L1201 866Z" fill="#144c4d" stroke="#144c4d"></path><path d="M1038 1080L1105 980L1059 969Z" fill="#062738" stroke="#062738"></path><path d="M1201 866L1279 767L1135 672Z" fill="#033542" stroke="#033542"></path><path d="M339 1080L375 1080L322 975Z" fill="#082334" stroke="#082334"></path><path d="M322 975L375 1080L424 939Z" fill="#0a1e30" stroke="#0a1e30"></path><path d="M482 0L277 0L421 141Z" fill="#043a45" stroke="#043a45"></path><path d="M256 167L110 171L147 281Z" fill="#094349" stroke="#094349"></path><path d="M1279 767L1326 674L1135 672Z" fill="#082334" stroke="#082334"></path><path d="M1105 980L1250 949L1201 866Z" fill="#03303f" stroke="#03303f"></path><path d="M1201 866L1250 949L1279 767Z" fill="#053e47" stroke="#053e47"></path><path d="M870 1080L1038 1080L1059 969Z" fill="#053e47" stroke="#053e47"></path><path d="M107 1080L339 1080L322 975Z" fill="#144c4d" stroke="#144c4d"></path><path d="M124 0L110 171L256 167Z" fill="#053e47" stroke="#053e47"></path><path d="M0 418L203 586L194 346Z" fill="#053e47" stroke="#053e47"></path><path d="M1306 122L1134 0L1166 171Z" fill="#03303f" stroke="#03303f"></path><path d="M0 418L194 346L147 281Z" fill="#0e474b" stroke="#0e474b"></path><path d="M0 277L0 418L147 281Z" fill="#062738" stroke="#062738"></path><path d="M0 540L0 665L203 586Z" fill="#062738" stroke="#062738"></path><path d="M170 815L118 963L322 975Z" fill="#043a45" stroke="#043a45"></path><path d="M1180 1080L1250 949L1105 980Z" fill="#053e47" stroke="#053e47"></path><path d="M1440 749L1440 695L1326 674Z" fill="#082334" stroke="#082334"></path><path d="M0 191L0 277L110 171Z" fill="#043a45" stroke="#043a45"></path><path d="M110 171L0 277L147 281Z" fill="#043a45" stroke="#043a45"></path><path d="M1440 268L1306 122L1238 220Z" fill="#033542" stroke="#033542"></path><path d="M1238 220L1306 122L1166 171Z" fill="#043a45" stroke="#043a45"></path><path d="M1440 268L1238 220L1297 362Z" fill="#043a45" stroke="#043a45"></path><path d="M0 914L118 963L170 815Z" fill="#082334" stroke="#082334"></path><path d="M1440 695L1440 513L1326 674Z" fill="#0e474b" stroke="#0e474b"></path><path d="M1326 674L1440 513L1270 488Z" fill="#0e474b" stroke="#0e474b"></path><path d="M1038 1080L1180 1080L1105 980Z" fill="#053e47" stroke="#053e47"></path><path d="M0 665L0 815L170 815Z" fill="#062738" stroke="#062738"></path><path d="M0 0L0 191L110 171Z" fill="#053e47" stroke="#053e47"></path><path d="M277 0L124 0L256 167Z" fill="#043a45" stroke="#043a45"></path><path d="M1440 513L1440 373L1270 488Z" fill="#043a45" stroke="#043a45"></path><path d="M1440 749L1326 674L1279 767Z" fill="#033542" stroke="#033542"></path><path d="M1440 749L1279 767L1440 983Z" fill="#053e47" stroke="#053e47"></path><path d="M1440 373L1440 268L1297 362Z" fill="#0a1e30" stroke="#0a1e30"></path><path d="M1440 983L1279 767L1250 949Z" fill="#0a1e30" stroke="#0a1e30"></path><path d="M1180 1080L1248 1080L1250 949Z" fill="#052c3c" stroke="#052c3c"></path><path d="M0 815L0 914L170 815Z" fill="#094349" stroke="#094349"></path><path d="M118 963L107 1080L322 975Z" fill="#0a1e30" stroke="#0a1e30"></path><path d="M1306 122L1328 0L1134 0Z" fill="#0a1e30" stroke="#0a1e30"></path><path d="M1440 134L1328 0L1306 122Z" fill="#144c4d" stroke="#144c4d"></path><path d="M0 1080L107 1080L118 963Z" fill="#0e474b" stroke="#0e474b"></path><path d="M1440 268L1440 134L1306 122Z" fill="#144c4d" stroke="#144c4d"></path><path d="M124 0L0 0L110 171Z" fill="#033542" stroke="#033542"></path><path d="M1248 1080L1440 983L1250 949Z" fill="#082334" stroke="#082334"></path><path d="M0 914L0 1080L118 963Z" fill="#043a45" stroke="#043a45"></path><path d="M1440 134L1440 0L1328 0Z" fill="#053e47" stroke="#053e47"></path><path d="M1248 1080L1440 1080L1440 983Z" fill="#03303f" stroke="#03303f"></path></g></svg>