<svg id="visual" viewBox="0 0 1440 1440" width="1440" height="1440" xmlns="http://www.w3.org/2000/svg" xmlns:xlink="http://www.w3.org/1999/xlink" version="1.1"><g stroke-width="1" stroke-linejoin="bevel"><path d="M749 692L700 592L552 753Z" fill="#31c89f" stroke="#31c89f"></path><path d="M700 592L581 537L552 753Z" fill="#00b6a0" stroke="#00b6a0"></path><path d="M552 753L763 826L749 692Z" fill="#00a39d" stroke="#00a39d"></path><path d="M561 847L763 826L552 753Z" fill="#02596f" stroke="#02596f"></path><path d="M412 607L454 740L552 753Z" fill="#00a39d" stroke="#00a39d"></path><path d="M552 753L454 740L561 847Z" fill="#00a39d" stroke="#00a39d"></path><path d="M581 537L412 607L552 753Z" fill="#006b7f" stroke="#006b7f"></path><path d="M853 473L716 439L700 592Z" fill="#02596f" stroke="#02596f"></path><path d="M700 592L716 439L581 537Z" fill="#009097" stroke="#009097"></path><path d="M581 537L446 483L412 607Z" fill="#02596f" stroke="#02596f"></path><path d="M710 1000L803 898L763 826Z" fill="#007d8d" stroke="#007d8d"></path><path d="M763 826L914 666L749 692Z" fill="#006b7f" stroke="#006b7f"></path><path d="M749 692L914 545L700 592Z" fill="#09374d" stroke="#09374d"></path><path d="M979 895L914 666L763 826Z" fill="#00b6a0" stroke="#00b6a0"></path><path d="M522 341L446 483L581 537Z" fill="#00a39d" stroke="#00a39d"></path><path d="M716 439L636 394L581 537Z" fill="#006b7f" stroke="#006b7f"></path><path d="M914 545L853 473L700 592Z" fill="#09273c" stroke="#09273c"></path><path d="M716 439L684 235L636 394Z" fill="#00b6a0" stroke="#00b6a0"></path><path d="M914 666L914 545L749 692Z" fill="#07182a" stroke="#07182a"></path><path d="M454 740L414 913L561 847Z" fill="#09374d" stroke="#09374d"></path><path d="M561 847L710 1000L763 826Z" fill="#007d8d" stroke="#007d8d"></path><path d="M318 886L414 913L454 740Z" fill="#09374d" stroke="#09374d"></path><path d="M534 995L710 1000L561 847Z" fill="#09273c" stroke="#09273c"></path><path d="M710 1000L813 961L803 898Z" fill="#07475f" stroke="#07475f"></path><path d="M979 895L1017 710L914 666Z" fill="#09273c" stroke="#09273c"></path><path d="M414 913L534 995L561 847Z" fill="#09374d" stroke="#09374d"></path><path d="M446 483L320 570L412 607Z" fill="#009097" stroke="#009097"></path><path d="M412 607L239 675L454 740Z" fill="#09273c" stroke="#09273c"></path><path d="M914 666L964 561L914 545Z" fill="#07182a" stroke="#07182a"></path><path d="M914 545L1053 436L853 473Z" fill="#09273c" stroke="#09273c"></path><path d="M1017 710L964 561L914 666Z" fill="#09273c" stroke="#09273c"></path><path d="M684 235L522 341L636 394Z" fill="#00a39d" stroke="#00a39d"></path><path d="M636 394L522 341L581 537Z" fill="#07475f" stroke="#07475f"></path><path d="M446 483L301 439L320 570Z" fill="#006b7f" stroke="#006b7f"></path><path d="M239 675L318 886L454 740Z" fill="#02596f" stroke="#02596f"></path><path d="M414 913L409 1004L534 995Z" fill="#07475f" stroke="#07475f"></path><path d="M979 895L763 826L803 898Z" fill="#09273c" stroke="#09273c"></path><path d="M343 1005L409 1004L414 913Z" fill="#00b6a0" stroke="#00b6a0"></path><path d="M529 1119L753 1107L710 1000Z" fill="#07475f" stroke="#07475f"></path><path d="M320 570L239 675L412 607Z" fill="#007d8d" stroke="#007d8d"></path><path d="M952 980L979 895L803 898Z" fill="#00a39d" stroke="#00a39d"></path><path d="M318 320L301 439L446 483Z" fill="#09374d" stroke="#09374d"></path><path d="M320 570L168 601L239 675Z" fill="#31c89f" stroke="#31c89f"></path><path d="M813 961L952 980L803 898Z" fill="#00a39d" stroke="#00a39d"></path><path d="M753 1107L952 980L813 961Z" fill="#07475f" stroke="#07475f"></path><path d="M193 949L343 1005L318 886Z" fill="#02596f" stroke="#02596f"></path><path d="M318 886L343 1005L414 913Z" fill="#006b7f" stroke="#006b7f"></path><path d="M529 1119L710 1000L534 995Z" fill="#09374d" stroke="#09374d"></path><path d="M529 1119L534 995L409 1004Z" fill="#007d8d" stroke="#007d8d"></path><path d="M710 1000L753 1107L813 961Z" fill="#07182a" stroke="#07182a"></path><path d="M470 1176L529 1119L409 1004Z" fill="#09374d" stroke="#09374d"></path><path d="M890 287L716 439L853 473Z" fill="#02596f" stroke="#02596f"></path><path d="M890 287L684 235L716 439Z" fill="#00a39d" stroke="#00a39d"></path><path d="M522 341L318 320L446 483Z" fill="#009097" stroke="#009097"></path><path d="M1053 436L890 287L853 473Z" fill="#09273c" stroke="#09273c"></path><path d="M1053 436L914 545L964 561Z" fill="#009097" stroke="#009097"></path><path d="M301 439L168 601L320 570Z" fill="#009097" stroke="#009097"></path><path d="M239 675L157 822L318 886Z" fill="#07475f" stroke="#07475f"></path><path d="M468 198L419 257L522 341Z" fill="#00b6a0" stroke="#00b6a0"></path><path d="M301 439L125 482L168 601Z" fill="#007d8d" stroke="#007d8d"></path><path d="M1125 630L1053 436L964 561Z" fill="#07182a" stroke="#07182a"></path><path d="M419 257L318 320L522 341Z" fill="#00b6a0" stroke="#00b6a0"></path><path d="M979 895L1125 697L1017 710Z" fill="#02596f" stroke="#02596f"></path><path d="M1017 710L1125 630L964 561Z" fill="#006b7f" stroke="#006b7f"></path><path d="M1200 882L1125 697L979 895Z" fill="#02596f" stroke="#02596f"></path><path d="M1125 697L1125 630L1017 710Z" fill="#006b7f" stroke="#006b7f"></path><path d="M97 713L157 822L239 675Z" fill="#07182a" stroke="#07182a"></path><path d="M569 163L468 198L522 341Z" fill="#07475f" stroke="#07475f"></path><path d="M419 257L239 131L318 320Z" fill="#00a39d" stroke="#00a39d"></path><path d="M157 822L193 949L318 886Z" fill="#09273c" stroke="#09273c"></path><path d="M294 1145L470 1176L409 1004Z" fill="#07475f" stroke="#07475f"></path><path d="M294 1145L409 1004L343 1005Z" fill="#007d8d" stroke="#007d8d"></path><path d="M723 1278L835 1190L753 1107Z" fill="#07475f" stroke="#07475f"></path><path d="M684 235L569 163L522 341Z" fill="#31c89f" stroke="#31c89f"></path><path d="M741 145L569 163L684 235Z" fill="#009097" stroke="#009097"></path><path d="M168 601L97 713L239 675Z" fill="#07182a" stroke="#07182a"></path><path d="M157 822L0 949L193 949Z" fill="#00a39d" stroke="#00a39d"></path><path d="M0 663L97 713L168 601Z" fill="#09273c" stroke="#09273c"></path><path d="M723 1278L753 1107L529 1119Z" fill="#00b6a0" stroke="#00b6a0"></path><path d="M753 1107L835 1190L952 980Z" fill="#02596f" stroke="#02596f"></path><path d="M1154 1040L1200 882L979 895Z" fill="#09374d" stroke="#09374d"></path><path d="M843 134L741 145L890 287Z" fill="#009097" stroke="#009097"></path><path d="M890 287L741 145L684 235Z" fill="#006b7f" stroke="#006b7f"></path><path d="M318 320L125 482L301 439Z" fill="#02596f" stroke="#02596f"></path><path d="M193 949L294 1145L343 1005Z" fill="#09273c" stroke="#09273c"></path><path d="M1032 236L843 134L890 287Z" fill="#31c89f" stroke="#31c89f"></path><path d="M545 0L468 198L569 163Z" fill="#31c89f" stroke="#31c89f"></path><path d="M294 1145L480 1252L470 1176Z" fill="#00b6a0" stroke="#00b6a0"></path><path d="M470 1176L480 1252L529 1119Z" fill="#07475f" stroke="#07475f"></path><path d="M1125 630L1163 404L1053 436Z" fill="#07475f" stroke="#07475f"></path><path d="M1053 436L1032 236L890 287Z" fill="#00b6a0" stroke="#00b6a0"></path><path d="M1310 621L1163 404L1125 630Z" fill="#009097" stroke="#009097"></path><path d="M1154 1040L979 895L952 980Z" fill="#009097" stroke="#009097"></path><path d="M1125 697L1310 621L1125 630Z" fill="#07182a" stroke="#07182a"></path><path d="M1163 404L1032 236L1053 436Z" fill="#07182a" stroke="#07182a"></path><path d="M523 1297L723 1278L529 1119Z" fill="#00a39d" stroke="#00a39d"></path><path d="M400 1440L523 1297L480 1252Z" fill="#09273c" stroke="#09273c"></path><path d="M480 1252L523 1297L529 1119Z" fill="#31c89f" stroke="#31c89f"></path><path d="M1057 1191L1154 1040L952 980Z" fill="#07182a" stroke="#07182a"></path><path d="M1057 1191L952 980L835 1190Z" fill="#09273c" stroke="#09273c"></path><path d="M0 540L0 663L168 601Z" fill="#09273c" stroke="#09273c"></path><path d="M97 713L0 834L157 822Z" fill="#09374d" stroke="#09374d"></path><path d="M193 949L145 1131L294 1145Z" fill="#02596f" stroke="#02596f"></path><path d="M0 464L0 540L125 482Z" fill="#006b7f" stroke="#006b7f"></path><path d="M125 482L0 540L168 601Z" fill="#009097" stroke="#009097"></path><path d="M0 464L125 482L83 270Z" fill="#31c89f" stroke="#31c89f"></path><path d="M0 663L0 834L97 713Z" fill="#07182a" stroke="#07182a"></path><path d="M976 1302L1057 1191L835 1190Z" fill="#09273c" stroke="#09273c"></path><path d="M0 949L145 1131L193 949Z" fill="#09273c" stroke="#09273c"></path><path d="M294 1145L287 1331L480 1252Z" fill="#02596f" stroke="#02596f"></path><path d="M1032 236L1040 148L843 134Z" fill="#07475f" stroke="#07475f"></path><path d="M1163 246L1040 148L1032 236Z" fill="#007d8d" stroke="#007d8d"></path><path d="M1326 668L1125 697L1200 882Z" fill="#007d8d" stroke="#007d8d"></path><path d="M1326 668L1310 621L1125 697Z" fill="#00a39d" stroke="#00a39d"></path><path d="M1163 404L1163 246L1032 236Z" fill="#007d8d" stroke="#007d8d"></path><path d="M83 270L125 482L318 320Z" fill="#09374d" stroke="#09374d"></path><path d="M326 0L239 131L468 198Z" fill="#007d8d" stroke="#007d8d"></path><path d="M468 198L239 131L419 257Z" fill="#07475f" stroke="#07475f"></path><path d="M708 0L569 163L741 145Z" fill="#07475f" stroke="#07475f"></path><path d="M1247 295L1163 246L1163 404Z" fill="#007d8d" stroke="#007d8d"></path><path d="M1322 863L1326 668L1200 882Z" fill="#00a39d" stroke="#00a39d"></path><path d="M908 0L708 0L843 134Z" fill="#31c89f" stroke="#31c89f"></path><path d="M843 134L708 0L741 145Z" fill="#009097" stroke="#009097"></path><path d="M708 0L545 0L569 163Z" fill="#07475f" stroke="#07475f"></path><path d="M0 834L0 949L157 822Z" fill="#07475f" stroke="#07475f"></path><path d="M153 185L83 270L318 320Z" fill="#02596f" stroke="#02596f"></path><path d="M839 1440L904 1327L723 1278Z" fill="#31c89f" stroke="#31c89f"></path><path d="M723 1278L904 1327L835 1190Z" fill="#00a39d" stroke="#00a39d"></path><path d="M239 131L153 185L318 320Z" fill="#02596f" stroke="#02596f"></path><path d="M1057 1191L1131 1182L1154 1040Z" fill="#00b6a0" stroke="#00b6a0"></path><path d="M1309 1067L1322 863L1200 882Z" fill="#07475f" stroke="#07475f"></path><path d="M1103 1254L1131 1182L1057 1191Z" fill="#07475f" stroke="#07475f"></path><path d="M904 1327L976 1302L835 1190Z" fill="#006b7f" stroke="#006b7f"></path><path d="M1309 1067L1200 882L1154 1040Z" fill="#31c89f" stroke="#31c89f"></path><path d="M545 0L416 0L468 198Z" fill="#009097" stroke="#009097"></path><path d="M239 131L204 0L153 185Z" fill="#006b7f" stroke="#006b7f"></path><path d="M1299 379L1247 295L1163 404Z" fill="#09273c" stroke="#09273c"></path><path d="M1163 246L1200 166L1040 148Z" fill="#09273c" stroke="#09273c"></path><path d="M1299 379L1163 404L1310 621Z" fill="#09374d" stroke="#09374d"></path><path d="M1440 472L1299 379L1310 621Z" fill="#009097" stroke="#009097"></path><path d="M976 1302L1103 1254L1057 1191Z" fill="#09273c" stroke="#09273c"></path><path d="M1292 1156L1309 1067L1154 1040Z" fill="#00b6a0" stroke="#00b6a0"></path><path d="M1040 148L908 0L843 134Z" fill="#09374d" stroke="#09374d"></path><path d="M1055 0L908 0L1040 148Z" fill="#007d8d" stroke="#007d8d"></path><path d="M97 1253L294 1145L145 1131Z" fill="#007d8d" stroke="#007d8d"></path><path d="M97 1253L287 1331L294 1145Z" fill="#006b7f" stroke="#006b7f"></path><path d="M523 1297L702 1440L723 1278Z" fill="#007d8d" stroke="#007d8d"></path><path d="M416 0L326 0L468 198Z" fill="#02596f" stroke="#02596f"></path><path d="M522 1440L702 1440L523 1297Z" fill="#007d8d" stroke="#007d8d"></path><path d="M904 1327L1053 1440L976 1302Z" fill="#007d8d" stroke="#007d8d"></path><path d="M976 1302L1053 1440L1103 1254Z" fill="#007d8d" stroke="#007d8d"></path><path d="M0 949L0 1098L145 1131Z" fill="#09273c" stroke="#09273c"></path><path d="M1236 88L1200 166L1440 157Z" fill="#007d8d" stroke="#007d8d"></path><path d="M1247 295L1200 166L1163 246Z" fill="#31c89f" stroke="#31c89f"></path><path d="M400 1440L522 1440L523 1297Z" fill="#02596f" stroke="#02596f"></path><path d="M1292 1156L1154 1040L1131 1182Z" fill="#006b7f" stroke="#006b7f"></path><path d="M0 185L83 270L153 185Z" fill="#00a39d" stroke="#00a39d"></path><path d="M0 185L0 250L83 270Z" fill="#31c89f" stroke="#31c89f"></path><path d="M83 270L0 250L0 464Z" fill="#31c89f" stroke="#31c89f"></path><path d="M702 1440L839 1440L723 1278Z" fill="#07475f" stroke="#07475f"></path><path d="M0 1098L97 1253L145 1131Z" fill="#07182a" stroke="#07182a"></path><path d="M287 1331L400 1440L480 1252Z" fill="#00a39d" stroke="#00a39d"></path><path d="M243 1440L400 1440L287 1331Z" fill="#09374d" stroke="#09374d"></path><path d="M1149 0L1055 0L1040 148Z" fill="#07475f" stroke="#07475f"></path><path d="M1311 1298L1292 1156L1131 1182Z" fill="#00a39d" stroke="#00a39d"></path><path d="M1311 1298L1131 1182L1103 1254Z" fill="#007d8d" stroke="#007d8d"></path><path d="M1322 863L1440 774L1326 668Z" fill="#07182a" stroke="#07182a"></path><path d="M1326 668L1440 555L1310 621Z" fill="#09273c" stroke="#09273c"></path><path d="M1440 807L1440 774L1322 863Z" fill="#07182a" stroke="#07182a"></path><path d="M1440 807L1322 863L1440 973Z" fill="#00a39d" stroke="#00a39d"></path><path d="M326 0L204 0L239 131Z" fill="#07475f" stroke="#07475f"></path><path d="M0 0L0 185L153 185Z" fill="#09374d" stroke="#09374d"></path><path d="M1440 973L1322 863L1309 1067Z" fill="#02596f" stroke="#02596f"></path><path d="M1440 774L1440 555L1326 668Z" fill="#09374d" stroke="#09374d"></path><path d="M1440 157L1200 166L1247 295Z" fill="#09273c" stroke="#09273c"></path><path d="M1440 555L1440 472L1310 621Z" fill="#009097" stroke="#009097"></path><path d="M1440 247L1247 295L1299 379Z" fill="#07182a" stroke="#07182a"></path><path d="M1200 166L1149 0L1040 148Z" fill="#00b6a0" stroke="#00b6a0"></path><path d="M1440 1206L1440 973L1309 1067Z" fill="#09374d" stroke="#09374d"></path><path d="M189 1440L243 1440L287 1331Z" fill="#09273c" stroke="#09273c"></path><path d="M1236 88L1149 0L1200 166Z" fill="#07182a" stroke="#07182a"></path><path d="M839 1440L1053 1440L904 1327Z" fill="#009097" stroke="#009097"></path><path d="M0 1098L0 1280L97 1253Z" fill="#09374d" stroke="#09374d"></path><path d="M97 1253L189 1440L287 1331Z" fill="#07182a" stroke="#07182a"></path><path d="M0 1440L189 1440L97 1253Z" fill="#09374d" stroke="#09374d"></path><path d="M1053 1440L1119 1440L1103 1254Z" fill="#009097" stroke="#009097"></path><path d="M1292 1156L1440 1206L1309 1067Z" fill="#07475f" stroke="#07475f"></path><path d="M1119 1440L1311 1298L1103 1254Z" fill="#07475f" stroke="#07475f"></path><path d="M1440 472L1440 247L1299 379Z" fill="#007d8d" stroke="#007d8d"></path><path d="M1236 88L1328 0L1149 0Z" fill="#00b6a0" stroke="#00b6a0"></path><path d="M204 0L0 0L153 185Z" fill="#31c89f" stroke="#31c89f"></path><path d="M1440 1316L1440 1206L1311 1298Z" fill="#09374d" stroke="#09374d"></path><path d="M1311 1298L1440 1206L1292 1156Z" fill="#09273c" stroke="#09273c"></path><path d="M1440 247L1440 157L1247 295Z" fill="#006b7f" stroke="#006b7f"></path><path d="M1440 157L1328 0L1236 88Z" fill="#02596f" stroke="#02596f"></path><path d="M0 1280L0 1440L97 1253Z" fill="#07475f" stroke="#07475f"></path><path d="M1119 1440L1323 1440L1311 1298Z" fill="#00a39d" stroke="#00a39d"></path><path d="M1323 1440L1440 1316L1311 1298Z" fill="#006b7f" stroke="#006b7f"></path><path d="M1440 157L1440 0L1328 0Z" fill="#007d8d" stroke="#007d8d"></path><path d="M1323 1440L1440 1440L1440 1316Z" fill="#007d8d" stroke="#007d8d"></path></g></svg>