<svg id="visual" viewBox="0 0 1440 1080" width="1440" height="1080" xmlns="http://www.w3.org/2000/svg" xmlns:xlink="http://www.w3.org/1999/xlink" version="1.1"><rect x="0" y="0" width="1440" height="1080" fill="#07182A"></rect><path d="M0 776L34.3 764.5C68.7 753 137.3 730 205.8 729C274.3 728 342.7 749 411.2 738.7C479.7 728.3 548.3 686.7 617 674C685.7 661.3 754.3 677.7 823 697.5C891.7 717.3 960.3 740.7 1028.8 748C1097.3 755.3 1165.7 746.7 1234.2 734.8C1302.7 723 1371.3 708 1405.7 700.5L1440 693L1440 1081L1405.7 1081C1371.3 1081 1302.7 1081 1234.2 1081C1165.7 1081 1097.3 1081 1028.8 1081C960.3 1081 891.7 1081 823 1081C754.3 1081 685.7 1081 617 1081C548.3 1081 479.7 1081 411.2 1081C342.7 1081 274.3 1081 205.8 1081C137.3 1081 68.7 1081 34.3 1081L0 1081Z" fill="#31c89f"></path><path d="M0 806L34.3 793.5C68.7 781 137.3 756 205.8 750.7C274.3 745.3 342.7 759.7 411.2 767C479.7 774.3 548.3 774.7 617 767.3C685.7 760 754.3 745 823 736.3C891.7 727.7 960.3 725.3 1028.8 731C1097.3 736.7 1165.7 750.3 1234.2 753C1302.7 755.7 1371.3 747.3 1405.7 743.2L1440 739L1440 1081L1405.7 1081C1371.3 1081 1302.7 1081 1234.2 1081C1165.7 1081 1097.3 1081 1028.8 1081C960.3 1081 891.7 1081 823 1081C754.3 1081 685.7 1081 617 1081C548.3 1081 479.7 1081 411.2 1081C342.7 1081 274.3 1081 205.8 1081C137.3 1081 68.7 1081 34.3 1081L0 1081Z" fill="#1eb295"></path><path d="M0 832L34.3 818.2C68.7 804.3 137.3 776.7 205.8 776.3C274.3 776 342.7 803 411.2 822.5C479.7 842 548.3 854 617 846.8C685.7 839.7 754.3 813.3 823 796.5C891.7 779.7 960.3 772.3 1028.8 786.7C1097.3 801 1165.7 837 1234.2 840.8C1302.7 844.7 1371.3 816.3 1405.7 802.2L1440 788L1440 1081L1405.7 1081C1371.3 1081 1302.7 1081 1234.2 1081C1165.7 1081 1097.3 1081 1028.8 1081C960.3 1081 891.7 1081 823 1081C754.3 1081 685.7 1081 617 1081C548.3 1081 479.7 1081 411.2 1081C342.7 1081 274.3 1081 205.8 1081C137.3 1081 68.7 1081 34.3 1081L0 1081Z" fill="#0e9d89"></path><path d="M0 831L34.3 842.3C68.7 853.7 137.3 876.3 205.8 872.2C274.3 868 342.7 837 411.2 829.3C479.7 821.7 548.3 837.3 617 847.5C685.7 857.7 754.3 862.3 823 867.5C891.7 872.7 960.3 878.3 1028.8 874.5C1097.3 870.7 1165.7 857.3 1234.2 852.2C1302.7 847 1371.3 850 1405.7 851.5L1440 853L1440 1081L1405.7 1081C1371.3 1081 1302.7 1081 1234.2 1081C1165.7 1081 1097.3 1081 1028.8 1081C960.3 1081 891.7 1081 823 1081C754.3 1081 685.7 1081 617 1081C548.3 1081 479.7 1081 411.2 1081C342.7 1081 274.3 1081 205.8 1081C137.3 1081 68.7 1081 34.3 1081L0 1081Z" fill="#07887c"></path><path d="M0 880L34.3 880.5C68.7 881 137.3 882 205.8 884.5C274.3 887 342.7 891 411.2 901.2C479.7 911.3 548.3 927.7 617 928C685.7 928.3 754.3 912.7 823 904.8C891.7 897 960.3 897 1028.8 898C1097.3 899 1165.7 901 1234.2 910C1302.7 919 1371.3 935 1405.7 943L1440 951L1440 1081L1405.7 1081C1371.3 1081 1302.7 1081 1234.2 1081C1165.7 1081 1097.3 1081 1028.8 1081C960.3 1081 891.7 1081 823 1081C754.3 1081 685.7 1081 617 1081C548.3 1081 479.7 1081 411.2 1081C342.7 1081 274.3 1081 205.8 1081C137.3 1081 68.7 1081 34.3 1081L0 1081Z" fill="#0a736d"></path><path d="M0 1000L34.3 995.5C68.7 991 137.3 982 205.8 980.5C274.3 979 342.7 985 411.2 982.3C479.7 979.7 548.3 968.3 617 962.8C685.7 957.3 754.3 957.7 823 958.3C891.7 959 960.3 960 1028.8 967.3C1097.3 974.7 1165.7 988.3 1234.2 983.2C1302.7 978 1371.3 954 1405.7 942L1440 930L1440 1081L1405.7 1081C1371.3 1081 1302.7 1081 1234.2 1081C1165.7 1081 1097.3 1081 1028.8 1081C960.3 1081 891.7 1081 823 1081C754.3 1081 685.7 1081 617 1081C548.3 1081 479.7 1081 411.2 1081C342.7 1081 274.3 1081 205.8 1081C137.3 1081 68.7 1081 34.3 1081L0 1081Z" fill="#105f5e"></path><path d="M0 1021L34.3 1014.2C68.7 1007.3 137.3 993.7 205.8 992C274.3 990.3 342.7 1000.7 411.2 1005.2C479.7 1009.7 548.3 1008.3 617 1014C685.7 1019.7 754.3 1032.3 823 1037.3C891.7 1042.3 960.3 1039.7 1028.8 1030.3C1097.3 1021 1165.7 1005 1234.2 1001.7C1302.7 998.3 1371.3 1007.7 1405.7 1012.3L1440 1017L1440 1081L1405.7 1081C1371.3 1081 1302.7 1081 1234.2 1081C1165.7 1081 1097.3 1081 1028.8 1081C960.3 1081 891.7 1081 823 1081C754.3 1081 685.7 1081 617 1081C548.3 1081 479.7 1081 411.2 1081C342.7 1081 274.3 1081 205.8 1081C137.3 1081 68.7 1081 34.3 1081L0 1081Z" fill="#144c4d"></path></svg>