<svg id="visual" viewBox="0 0 1440 1080" width="1440" height="1080" xmlns="http://www.w3.org/2000/svg" xmlns:xlink="http://www.w3.org/1999/xlink" version="1.1"><path d="M0 174L21.8 159.5C43.7 145 87.3 116 131 121.3C174.7 126.7 218.3 166.3 262 179C305.7 191.7 349.3 177.3 393 168.3C436.7 159.3 480.3 155.7 524 150.3C567.7 145 611.3 138 654.8 129C698.3 120 741.7 109 785.2 125.2C828.7 141.3 872.3 184.7 916 181.2C959.7 177.7 1003.3 127.3 1047 116.5C1090.7 105.7 1134.3 134.3 1178 145C1221.7 155.7 1265.3 148.3 1309 141.2C1352.7 134 1396.3 127 1418.2 123.5L1440 120L1440 0L1418.2 0C1396.3 0 1352.7 0 1309 0C1265.3 0 1221.7 0 1178 0C1134.3 0 1090.7 0 1047 0C1003.3 0 959.7 0 916 0C872.3 0 828.7 0 785.2 0C741.7 0 698.3 0 654.8 0C611.3 0 567.7 0 524 0C480.3 0 436.7 0 393 0C349.3 0 305.7 0 262 0C218.3 0 174.7 0 131 0C87.3 0 43.7 0 21.8 0L0 0Z" fill="#307779"></path><path d="M0 293L21.8 287.5C43.7 282 87.3 271 131 276.3C174.7 281.7 218.3 303.3 262 328.5C305.7 353.7 349.3 382.3 393 387.7C436.7 393 480.3 375 524 344.5C567.7 314 611.3 271 654.8 280C698.3 289 741.7 350 785.2 389.5C828.7 429 872.3 447 916 430.8C959.7 414.7 1003.3 364.3 1047 353.7C1090.7 343 1134.3 372 1178 395.5C1221.7 419 1265.3 437 1309 413.5C1352.7 390 1396.3 325 1418.2 292.5L1440 260L1440 118L1418.2 121.5C1396.3 125 1352.7 132 1309 139.2C1265.3 146.3 1221.7 153.7 1178 143C1134.3 132.3 1090.7 103.7 1047 114.5C1003.3 125.3 959.7 175.7 916 179.2C872.3 182.7 828.7 139.3 785.2 123.2C741.7 107 698.3 118 654.8 127C611.3 136 567.7 143 524 148.3C480.3 153.7 436.7 157.3 393 166.3C349.3 175.3 305.7 189.7 262 177C218.3 164.3 174.7 124.7 131 119.3C87.3 114 43.7 143 21.8 157.5L0 172Z" fill="#226163"></path><path d="M0 552L21.8 543C43.7 534 87.3 516 131 521.3C174.7 526.7 218.3 555.3 262 591.3C305.7 627.3 349.3 670.7 393 677.8C436.7 685 480.3 656 524 657.8C567.7 659.7 611.3 692.3 654.8 690.7C698.3 689 741.7 653 785.2 633.2C828.7 613.3 872.3 609.7 916 640.2C959.7 670.7 1003.3 735.3 1047 746.2C1090.7 757 1134.3 714 1178 724.8C1221.7 735.7 1265.3 800.3 1309 794.8C1352.7 789.3 1396.3 713.7 1418.2 675.8L1440 638L1440 258L1418.2 290.5C1396.3 323 1352.7 388 1309 411.5C1265.3 435 1221.7 417 1178 393.5C1134.3 370 1090.7 341 1047 351.7C1003.3 362.3 959.7 412.7 916 428.8C872.3 445 828.7 427 785.2 387.5C741.7 348 698.3 287 654.8 278C611.3 269 567.7 312 524 342.5C480.3 373 436.7 391 393 385.7C349.3 380.3 305.7 351.7 262 326.5C218.3 301.3 174.7 279.7 131 274.3C87.3 269 43.7 280 21.8 285.5L0 291Z" fill="#144c4d"></path><path d="M0 735L21.8 718.8C43.7 702.7 87.3 670.3 131 665C174.7 659.7 218.3 681.3 262 717.3C305.7 753.3 349.3 803.7 393 819.8C436.7 836 480.3 818 524 823.5C567.7 829 611.3 858 654.8 843.7C698.3 829.3 741.7 771.7 785.2 746.3C828.7 721 872.3 728 916 764C959.7 800 1003.3 865 1047 877.7C1090.7 890.3 1134.3 850.7 1178 850.7C1221.7 850.7 1265.3 890.3 1309 879.5C1352.7 868.7 1396.3 807.3 1418.2 776.7L1440 746L1440 636L1418.2 673.8C1396.3 711.7 1352.7 787.3 1309 792.8C1265.3 798.3 1221.7 733.7 1178 722.8C1134.3 712 1090.7 755 1047 744.2C1003.3 733.3 959.7 668.7 916 638.2C872.3 607.7 828.7 611.3 785.2 631.2C741.7 651 698.3 687 654.8 688.7C611.3 690.3 567.7 657.7 524 655.8C480.3 654 436.7 683 393 675.8C349.3 668.7 305.7 625.3 262 589.3C218.3 553.3 174.7 524.7 131 519.3C87.3 514 43.7 532 21.8 541L0 550Z" fill="#134243"></path><path d="M0 1081L21.8 1081C43.7 1081 87.3 1081 131 1081C174.7 1081 218.3 1081 262 1081C305.7 1081 349.3 1081 393 1081C436.7 1081 480.3 1081 524 1081C567.7 1081 611.3 1081 654.8 1081C698.3 1081 741.7 1081 785.2 1081C828.7 1081 872.3 1081 916 1081C959.7 1081 1003.3 1081 1047 1081C1090.7 1081 1134.3 1081 1178 1081C1221.7 1081 1265.3 1081 1309 1081C1352.7 1081 1396.3 1081 1418.2 1081L1440 1081L1440 744L1418.2 774.7C1396.3 805.3 1352.7 866.7 1309 877.5C1265.3 888.3 1221.7 848.7 1178 848.7C1134.3 848.7 1090.7 888.3 1047 875.7C1003.3 863 959.7 798 916 762C872.3 726 828.7 719 785.2 744.3C741.7 769.7 698.3 827.3 654.8 841.7C611.3 856 567.7 827 524 821.5C480.3 816 436.7 834 393 817.8C349.3 801.7 305.7 751.3 262 715.3C218.3 679.3 174.7 657.7 131 663C87.3 668.3 43.7 700.7 21.8 716.8L0 733Z" fill="#123839"></path></svg>